{"title":"Class of 61 (1993) Clive Owen (very rare DVDrip opt.NORDIC SUBS)","uid":6553057,"size":736872547,"categoryP":"video","categoryS":"movies","magnet":"?xt=urn:btih:04fc0d41f4e06b854aa143ef1861f3b0eb5a7bbf&amp;dn=Class+of+61+%281993%29+Clive+Owen+%28very+rare+DVDrip+opt.NORDIC+SUBS%29&amp;tr=udp%3A%2F%2Ftracker.openbittorrent.com%3A80&amp;tr=udp%3A%2F%2Fopen.demonii.com%3A1337&amp;tr=udp%3A%2F%2Ftracker.coppersurfer.tk%3A6969&amp;tr=udp%3A%2F%2Fexodus.desync.com%3A6969","seeders":0,"leechers":1,"uploader":"Kuthumi","files":-1,"time":1311179641,"description":"Class of 61 (1993) Clive Owen (very rare DVDrip opt.NORDIC SUBS)\n &lt;a href=&quot;\nhttp://www.imdb.com/title/tt0106578/&quot; rel=&quot;nofollow&quot; target=&quot;_NEW&quot;&gt;\nhttp://www.imdb.com/title/tt0106578/&lt;/a&gt;\n\na.k.a. Class of '61 (1993)\n\nOptional subtitles in separate idx/sub files (Work in Windows Media Player etc., see enclosed Note): \nDanish, Finnish, Norwegian, Swedish.\n\nWith very young Clive Owen, Josh Lucas, Laura Linney, Dan Futterman and Christien Anholt.\n\nA group of West Point 1861 cadets and friends go on opposite sides after the breakout of The American Civil War. This is one of the first films by all the promising actors, and it's a scandal that it has never been released on DVD in the U.S. Only 162 people have had a chance to vote on IMDB.\n\nThis film has been on my most wanted list for years, until I recently discovered a very rare Nordic DVD edition. So I want to share it because it has not been available elsewhere. \n\nOriginal fullscreen, DVDrip XviD 2-pass 608x432, good stereo sound AC3.\nSynch tested, runs well in both my standalone DivX players.\n\nMediaInfo analysis:\nFormat/Info                      : Audio Video Interleave\nFile size                        : 696 MiB\nDuration                         : 1h 30mn\nOverall bit rate                 : 1 074 Kbps\n\nVideo\nID                               : 0\nFormat                           : MPEG-4 Visual\nFormat profile                   : Advanced Simple@L5\nFormat settings, BVOP            : 2\nFormat settings, QPel            : No\nFormat settings, GMC             : No warppoints\nFormat settings, Matrix          : Default (H.263)\nMuxing mode                      : Packed bitstream\nCodec ID                         : XVID\nCodec ID/Hint                    : XviD\nDuration                         : 1h 30mn\nBit rate                         : 937 Kbps\nWidth                            : 608 pixels\nHeight                           : 432 pixels\nDisplay aspect ratio             : 1.407\nFrame rate                       : 25.000 fps\nColor space                      : YUV\nChroma subsampling               : 4:2:0\nBit depth                        : 8 bits\nScan type                        : Progressive\nCompression mode                 : Lossy\nBits/(Pixel*Frame)               : 0.143\nStream size                      : 607 MiB (87%)\nWriting library                  : XviD 1.2.1 (UTC 2008-12-04)\n\nAudio\nID                               : 1\nFormat                           : MPEG Audio\nFormat version                   : Version 1\nFormat profile                   : Layer 3\nMode                             : Joint stereo\nMode extension                   : MS Stereo\nCodec ID                         : 55\nCodec ID/Hint                    : MP3\nDuration                         : 1h 30mn\nBit rate mode                    : Constant\nBit rate                         : 128 Kbps\nChannel(s)                       : 2 channels\nSampling rate                    : 48.0 KHz\nCompression mode                 : Lossy\nStream size                      : 82.9 MiB (12%)\nAlignment                        : Aligned on interleaves\nInterleave, duration             : 40 ms (1.00 video frame)\nInterleave, preload duration     : 504 ms\nWriting library                  : LAME3.97\n\nSource: PAL retail (avi files as this one are independent of regions and format PAL/NTSC).\n\nPlease note that the original DVD has a slightly blurred picture, which is necessarily reflected in my rip.","torrent":{"xt":"urn:btih:04fc0d41f4e06b854aa143ef1861f3b0eb5a7bbf","amp;dn":"Class+of+61+%281993%29+Clive+Owen+%28very+rare+DVDrip+opt.NORDIC+SUBS%29","amp;tr":["udp%3A%2F%2Ftracker.openbittorrent.com%3A80","udp%3A%2F%2Fopen.demonii.com%3A1337","udp%3A%2F%2Ftracker.coppersurfer.tk%3A6969","udp%3A%2F%2Fexodus.desync.com%3A6969"],"infoHash":"04fc0d41f4e06b854aa143ef1861f3b0eb5a7bbf","infoHashBuffer":{"type":"Buffer","data":[4,252,13,65,244,224,107,133,74,161,67,239,24,97,243,176,235,90,123,191]},"announce":[],"urlList":[]}}